<svg id="icon_11" xmlns="http://www.w3.org/2000/svg" width="99.767" height="115.108" viewBox="0 0 99.767 115.108">
  <path id="Trazado_979" data-name="Trazado 979" d="M597.4,2362.932q-5.335,0-10.669,0c-2.1,0-2.77-.5-3.4-2.476-1.635-5.172-3.286-10.339-4.887-15.522-.272-.881-.526-1.008-1.215-.367a13.572,13.572,0,0,1-2.734,1.93,7.51,7.51,0,0,1-7.652.03,13.3,13.3,0,0,1-2.745-1.912c-.712-.664-.995-.614-1.293.355-1.6,5.184-3.245,10.352-4.88,15.524-.6,1.908-1.309,2.436-3.307,2.438q-10.849.008-21.7,0c-2.629,0-3.671-1.456-2.87-4,2.949-9.358,5.885-18.72,8.887-28.061a1.54,1.54,0,0,0-.865-2.192c-1.5-.771-3.119-1.218-4.669-1.848-.48-.2-.977-.35-1.451-.559-4.427-1.947-6.1-5-5.347-9.791.228-1.459.456-2.92.752-4.366a5.558,5.558,0,0,0-1.323-5.112c-1.113-1.253-2.2-2.539-3.193-3.888-2.8-3.8-2.79-7.086.022-10.87,1.047-1.409,2.187-2.753,3.341-4.076a5.409,5.409,0,0,0,1.194-4.694,51.067,51.067,0,0,1-.925-6.394,7.578,7.578,0,0,1,4.438-7.455,28.049,28.049,0,0,1,5.008-1.961A6.428,6.428,0,0,0,540.6,2263c.332-1.147.774-2.265,1.219-3.375,2.054-5.125,5.241-6.859,10.686-5.858,1.413.26,2.838.452,4.249.722a4.8,4.8,0,0,0,4.142-1.066c1.389-1.14,2.743-2.328,4.177-3.409,3.887-2.931,7.259-2.918,11.166.018a29.228,29.228,0,0,1,3.037,2.529,6.672,6.672,0,0,0,6.713,1.737,20.832,20.832,0,0,1,6.521-.717,7.213,7.213,0,0,1,5.684,3.514,20.593,20.593,0,0,1,2.369,5.6,6.859,6.859,0,0,0,5.162,5.1,26.916,26.916,0,0,1,3.587,1.329c4.441,1.929,6.1,4.981,5.348,9.781-.228,1.459-.459,2.919-.75,4.366a5.539,5.539,0,0,0,1.327,5.109c1.094,1.217,2.143,2.481,3.122,3.791,2.869,3.84,2.886,7.117.043,10.966-1.019,1.38-2.133,2.694-3.266,3.983a5.567,5.567,0,0,0-1.249,4.909,52.488,52.488,0,0,1,.9,6.035,7.616,7.616,0,0,1-4.756,7.847c-1.3.61-2.667,1.06-4,1.59-.888.354-1.773.719-2.657,1.084-1.147.475-1.407,1.149-.994,2.428,3,9.3,5.915,18.627,8.85,27.947.792,2.515-.271,3.954-2.923,3.96C604.67,2362.938,601.034,2362.932,597.4,2362.932Zm-47.569-104.285c-1.284-.224-2.269.54-2.829,1.9q-1.049,2.543-1.973,5.136a10.214,10.214,0,0,1-6.474,6.44c-1.5.541-3.006,1.074-4.479,1.682-2.329.96-2.786,1.8-2.4,4.265.231,1.459.49,2.913.741,4.368a10.346,10.346,0,0,1-2.251,8.972c-1.067,1.242-2.12,2.5-3.117,3.8-1.549,2.017-1.547,2.983.022,5.022,1.12,1.456,2.337,2.836,3.476,4.278a9.463,9.463,0,0,1,2.031,6.948c-.177,2.035-.668,4.015-.939,6.032-.3,2.251.149,3.145,2.253,4.032,1.358.573,2.743,1.094,4.143,1.555a10.722,10.722,0,0,1,7.231,7.237,31.24,31.24,0,0,0,1.806,4.685,2.668,2.668,0,0,0,3.193,1.735,20.7,20.7,0,0,0,3.193-.486,12.061,12.061,0,0,1,12.619,3.353,17.807,17.807,0,0,0,2.129,1.747c1.927,1.439,2.94,1.46,4.841.006,1.554-1.188,3.019-2.492,4.57-3.684a9.273,9.273,0,0,1,7.335-1.854c1.972.3,3.939.643,5.917.9,1.823.236,2.669-.226,3.424-1.916a36.04,36.04,0,0,0,1.53-4.023,11.127,11.127,0,0,1,7.847-7.856,35.417,35.417,0,0,0,3.8-1.433c1.963-.846,2.462-1.768,2.168-3.861a31.377,31.377,0,0,0-.54-3.186c-1.1-4.457-.264-8.377,3.024-11.7a25.093,25.093,0,0,0,2.2-2.684c1.4-1.873,1.4-2.864-.027-4.733-1.067-1.4-2.226-2.72-3.335-4.083a9.456,9.456,0,0,1-2.243-7.465c.259-1.937.594-3.864.888-5.8.349-2.3-.137-3.21-2.288-4.12a34.542,34.542,0,0,0-3.476-1.288,11.3,11.3,0,0,1-8.073-8.094,23.959,23.959,0,0,0-1.655-4.23,2.67,2.67,0,0,0-2.7-1.588,24.131,24.131,0,0,0-4.5.667,11.294,11.294,0,0,1-11.05-2.938,30.655,30.655,0,0,0-3.06-2.5c-1.684-1.237-2.668-1.251-4.34-.005-1.375,1.025-2.689,2.137-3.993,3.253a10.315,10.315,0,0,1-8.93,2.376A43.2,43.2,0,0,0,549.829,2258.647Zm49.093,78.307c-2.146,4.4-5.555,5.405-9.757,4.727a43.148,43.148,0,0,0-5.558-.818c-.713-.022-1.126-.006-.811.962,1.642,5.038,3.227,10.095,4.793,15.157a.958.958,0,0,0,1.092.806q7.963-.027,15.926,0c.775,0,.834-.235.612-.914-1-3.067-1.953-6.152-2.924-9.23C601.209,2344.2,600.12,2340.75,598.923,2336.954Zm-56.449.335c-.28.069-.317.266-.378.458-2.011,6.384-4.014,12.77-6.054,19.145-.231.72-.091.9.639.895q7.963-.028,15.925,0a.959.959,0,0,0,1.078-.826q2.353-7.592,4.791-15.157c.268-.826.027-.974-.713-.949a34.106,34.106,0,0,0-4.967.724C547.651,2342.51,544.951,2341.407,542.474,2337.289Z" transform="translate(-520.753 -2247.827)" fill="#029837"/>
  <path id="Trazado_980" data-name="Trazado 980" d="M576.763,2335.674A31.942,31.942,0,1,1,608.7,2367.62,32,32,0,0,1,576.763,2335.674Zm31.947-26.851a26.85,26.85,0,1,0,26.846,26.805A26.849,26.849,0,0,0,608.71,2308.824Z" transform="translate(-558.823 -2285.782)" fill="#029837"/>
  <path id="Trazado_981" data-name="Trazado 981" d="M651.264,2376.7a2.54,2.54,0,0,1-3.772,2.476q-3.975-1.949-7.877-4.044a2.032,2.032,0,0,0-2.2.006c-2.49,1.347-5.04,2.583-7.55,3.895a2.634,2.634,0,0,1-3.978-3.1c.645-2.8,1.263-5.6,1.957-8.388a1.463,1.463,0,0,0-.452-1.583c-1.919-1.922-3.8-3.885-5.706-5.816a2.65,2.65,0,0,1,1.589-4.768c2.644-.4,5.282-.835,7.931-1.192a1.388,1.388,0,0,0,1.221-.927c1.16-2.539,2.369-5.056,3.537-7.592a2.656,2.656,0,0,1,5.1-.005c1.171,2.535,2.376,5.053,3.538,7.592a1.386,1.386,0,0,0,1.217.932c2.57.343,5.129.766,7.694,1.154a3.126,3.126,0,0,1,2.534,1.36,2.561,2.561,0,0,1-.541,3.269c-1.91,1.987-3.829,3.966-5.783,5.908a1.625,1.625,0,0,0-.511,1.785c.688,2.7,1.273,5.435,1.891,8.157C651.184,2376.162,651.232,2376.518,651.264,2376.7Zm-19.251-4.525c1.736-.89,3.251-1.607,4.7-2.431a3.4,3.4,0,0,1,3.616.007c1.469.818,2.989,1.542,4.676,2.4-.416-1.8-.713-3.362-1.149-4.887a3.4,3.4,0,0,1,1.033-3.779c1.212-1.12,2.32-2.353,3.645-3.712-1.644-.251-3.006-.545-4.382-.648a3.9,3.9,0,0,1-3.76-2.771c-.474-1.313-1.179-2.543-1.887-4.032-.812,1.722-1.524,3.146-2.158,4.6a3.125,3.125,0,0,1-2.688,2.06c-1.646.194-3.279.5-5.156.8,1.353,1.392,2.5,2.649,3.736,3.821a3.24,3.24,0,0,1,.97,3.469C632.785,2368.681,632.446,2370.314,632.014,2372.174Z" transform="translate(-588.633 -2313.021)" fill="#029837"/>
</svg>
