<svg id="icon_09" xmlns="http://www.w3.org/2000/svg" width="154.154" height="114.278" viewBox="0 0 154.154 114.278">
  <path id="Trazado_976" data-name="Trazado 976" d="M740.516,1781.222a10.792,10.792,0,0,1-1.7,2.089q-6.609,6.587-13.2,13.194c-1.908,1.906-2.886,1.961-4.813.152-.581-.546-.9-.539-1.444.018-2.2,2.264-4.448,4.49-6.685,6.723a7.144,7.144,0,0,0-1.918,3.842,38.911,38.911,0,0,1-11.612,21.123,1.6,1.6,0,0,0-.37,2.267,8.16,8.16,0,0,1-4.484,11.271c-.895.336-1.225.618-1.122,1.657a8.189,8.189,0,0,1-11.8,8.071c-1.1-.577-1.407-.311-1.951.645a8.186,8.186,0,0,1-11.994,2.4c-.358-.272-.71-.552-1.158-.9a8.677,8.677,0,0,1-5.573,4.886,7.212,7.212,0,0,1-3.569.151,2.26,2.26,0,0,0-2.275.569,8.772,8.772,0,0,1-14.426-5.537c-.144-1.078-.522-1.383-1.524-1.511a8.561,8.561,0,0,1-7.559-7.759c-.1-1.107-.452-1.347-1.472-1.484a8.732,8.732,0,0,1-6.088-14.039c.51-.716.379-1.047-.164-1.592a38.721,38.721,0,0,1-10.751-20.279,8.1,8.1,0,0,0-2.251-4.172c-.809-.823-1.661-1.605-2.439-2.456-.962-1.051-1.72-2.115-3.265-.527-.833.857-2.122.408-2.982-.447q-7.364-7.322-14.677-14.695c-1.217-1.233-1.147-2.434-.016-3.74.229-.265.489-.5.737-.752q15.75-15.751,31.5-31.5c2.134-2.134,3.127-2.138,5.251-.016q6.707,6.7,13.408,13.411c1.7,1.706,1.774,2.384.383,4.4-.3.433-.289.647.063.991,2.08,2.034,4.063,4.175,6.237,6.1a6.871,6.871,0,0,0,6.769,1.437c3.258-.953,6.525-1.611,9.916-.81a2.3,2.3,0,0,0,1.559-.406,20.46,20.46,0,0,1,17.061-.488c4.1,1.7,7.511,1.066,10.44-2.249.2-.225.424-.427.637-.64,1.584-1.584,1.589-1.588.216-3.357a2.3,2.3,0,0,1,.039-3.279q7.443-7.559,15-15.012a2.369,2.369,0,0,1,3.4-.037,14.31,14.31,0,0,1,1.083,1.043q13.3,13.3,26.6,26.608c1.019,1.02,1.99,2.089,2.983,3.135Zm-84.961-1.784a5.234,5.234,0,0,0-2.326.428,12.316,12.316,0,0,1-11.934-2.653c-1.992-1.753-3.862-3.658-5.675-5.6-.842-.9-1.29-.762-2.083.037q-10.974,11.055-22.017,22.041c-1.627,1.627-1.673,1.677-.017,3.214,3.1,2.878,5.656,5.985,6.486,10.362,1.342,7.078,5.046,12.9,10.212,17.846a1.674,1.674,0,0,0,1.458.528c5.374-.494,9.4,2.786,9.938,8.111.073.721.222,1.007,1.017,1.086,4.589.462,7.594,3.3,8.218,7.779.127.918.406,1.2,1.339,1.307a8.8,8.8,0,0,1,7.8,8.544c.032,1.677.509,1.972,2.024,1.191a3.234,3.234,0,0,0,1.688-2.009c.49-1.629-.256-2.8-1.337-3.877q-7.348-7.338-14.685-14.687a8.029,8.029,0,0,1-1.091-1.236,2.255,2.255,0,0,1,.349-3.128,2.283,2.283,0,0,1,3.035-.18,8.565,8.565,0,0,1,1.223,1.107q9.955,9.946,19.908,19.893a9.046,9.046,0,0,0,1.6,1.35,3.23,3.23,0,0,0,4.882-2.182c.343-1.594-.5-2.666-1.522-3.687q-9.476-9.467-18.939-18.946c-1.289-1.293-1.368-2.823-.295-3.844,1.049-1,2.442-.875,3.741.337.256.24.5.5.746.744q11.226,11.228,22.456,22.454a9.114,9.114,0,0,0,1.48,1.263,3.248,3.248,0,0,0,4.976-2.186c.319-1.6-.554-2.653-1.572-3.671q-12.084-12.074-24.159-24.156c-1.684-1.685-1.968-3.127-.854-4.276,1.2-1.236,2.567-.979,4.383.836q11.069,11.066,22.141,22.129a8.791,8.791,0,0,0,1.607,1.346,3.193,3.193,0,0,0,4.354-1.051c1-1.522.732-3.059-.9-4.692q-14.89-14.908-29.779-29.816c-.693-.7-1.065-.71-1.768-.008-2.553,2.552-4.937,5.288-7.737,7.576a9.747,9.747,0,0,1-11.992.061c-4.894-3.837-5.2-10.5-.627-15.154,4.361-4.436,8.789-8.806,13.177-13.215A3.1,3.1,0,0,0,655.555,1779.438Zm24,30.936c.064.213.064.334.124.394,4.814,4.833,9.645,9.648,14.437,14.5.715.723,1,.148,1.417-.247a34.3,34.3,0,0,0,10.368-18.6,12.258,12.258,0,0,1,3.262-6.479c2.151-2.175,4.273-4.384,6.5-6.481.862-.813.72-1.229-.045-1.986q-9.143-9.051-18.19-18.2c-.808-.819-1.224-.786-1.984.019-1.717,1.819-3.409,3.7-5.729,4.8-3.833,1.818-7.59,1.461-11.487-.059-5.935-2.314-11.74-1.624-16.462,2.675-6.039,5.5-11.666,11.449-17.435,17.24a4.519,4.519,0,0,0-1.215,4.444,4.917,4.917,0,0,0,8.4,2.286c3.425-3.311,6.75-6.727,10.121-10.094,1.1-1.1,2.164-2.238,3.325-3.269a2.384,2.384,0,0,1,3.395.025,2.422,2.422,0,0,1,.043,3.4,13.843,13.843,0,0,1-1.582,1.606c-.6.519-.744.9-.08,1.544a34.789,34.789,0,0,0,4.894,4.215c3.6,2.378,7.316,4.181,11.833,2.651a2.268,2.268,0,0,1,2.852,1.573,2.454,2.454,0,0,1-1.632,3.115A19.991,19.991,0,0,1,679.554,1810.374Zm-75.8-15.972c.312-.277.583-.494.827-.738q14.1-14.089,28.209-28.167c.692-.688.586-1.047-.045-1.667q-4.988-4.9-9.891-9.892c-.612-.623-.935-.565-1.523.025q-14.066,14.122-28.185,28.19c-.6.6-.805.942-.08,1.65,3.372,3.293,6.679,6.652,10.012,9.985C603.277,1793.991,603.5,1794.175,603.752,1794.4Zm104.389-40.149c-.23.2-.429.35-.6.525-3.406,3.4-6.8,6.822-10.225,10.208-.544.538-.426.849.055,1.328q12.525,12.485,25.015,25.005c.524.525.845.653,1.434.055q5.011-5.1,10.1-10.122c.482-.478.588-.776.043-1.318q-12.583-12.534-25.129-25.1C708.623,1754.624,708.383,1754.454,708.141,1754.252Zm-64.174,89.425a3.885,3.885,0,1,0-3.923,3.848A3.81,3.81,0,0,0,643.967,1843.677Zm9.053,8.937a3.882,3.882,0,1,0-3.81,3.964A3.855,3.855,0,0,0,653.02,1852.614Zm-22.193-14.4a3.83,3.83,0,0,0,3.879-3.9,3.906,3.906,0,0,0-7.812.058A3.823,3.823,0,0,0,630.828,1838.217Z" transform="translate(-586.362 -1747.281)" fill="#029837"/>
  <path id="Trazado_977" data-name="Trazado 977" d="M627.595,1843.043a2.439,2.439,0,0,1-2.582,2.335,2.4,2.4,0,0,1-2.282-2.46,2.494,2.494,0,0,1,2.407-2.383A2.547,2.547,0,0,1,627.595,1843.043Z" transform="translate(-609.017 -1805.372)" fill="#029837"/>
  <path id="Trazado_978" data-name="Trazado 978" d="M953.954,1836.525a2.383,2.383,0,0,1-2.312,2.432,2.438,2.438,0,0,1-2.546-2.374,2.5,2.5,0,0,1,2.489-2.461A2.443,2.443,0,0,1,953.954,1836.525Z" transform="translate(-812.319 -1801.376)" fill="#029837"/>
</svg>
