<svg id="icon_13" xmlns="http://www.w3.org/2000/svg" width="161.261" height="134.384" viewBox="0 0 161.261 134.384">
  <path id="Trazado_1045" data-name="Trazado 1045" d="M846.524,2987.417c-.8,2.069-2.379,3.112-4.435,3.839q-36.582,12.942-73.12,26.008a8.1,8.1,0,0,1-5.785.107q-37.054-13.257-74.146-26.406c-3.1-1.1-4.477-3.664-3.426-6.347a5.169,5.169,0,0,1,3.436-2.974q27.935-9.828,55.854-19.7c6.222-2.2,12.45-4.377,18.661-6.6a6.568,6.568,0,0,1,4.6-.035q37.252,13.168,74.521,26.286a6.13,6.13,0,0,1,3.842,3.625Z" transform="translate(-685.263 -2954.902)" fill="#fff"/>
  <path id="Trazado_1046" data-name="Trazado 1046" d="M764.169,3100.692q0-4.644,0-9.288c0-1.736.011-1.74,1.75-1.121,13.275,4.719,26.567,9.392,39.813,14.191a16.456,16.456,0,0,0,11.653.042c13.306-4.79,26.64-9.5,39.963-14.239,1.665-.592,1.672-.588,1.673,1.2,0,5.982-.06,11.965.026,17.945a9.4,9.4,0,0,1-3.567,7.694c-3.556,3.011-7.786,4.725-12.146,6.1a107.821,107.821,0,0,1-41.207,4.209,88.524,88.524,0,0,1-27.2-6.056,26.208,26.208,0,0,1-7.4-4.4,9.146,9.146,0,0,1-3.382-7.458C764.233,3106.571,764.169,3103.63,764.169,3100.692Z" transform="translate(-730.958 -3033.107)" fill="#fff"/>
  <path id="Trazado_1047" data-name="Trazado 1047" d="M1022.022,3070.935V3082.5c0,9.4.013,18.791-.019,28.187a2.449,2.449,0,0,0,1.064,2.206,9.343,9.343,0,0,1-.145,15.032,2.131,2.131,0,0,0-.911,1.971q.028,10.786,0,21.573c-.012,3.373-2.7,5.605-5.8,4.9a4.737,4.737,0,0,1-3.63-4.881c-.014-7.086-.027-14.172.017-21.258a2.718,2.718,0,0,0-1.162-2.486,9.325,9.325,0,0,1-.045-14.73,2.888,2.888,0,0,0,1.2-2.612c-.031-11.547,0-23.094-.047-34.642a1.717,1.717,0,0,1,1.4-1.98C1016.583,3072.938,1019.174,3071.95,1022.022,3070.935Z" transform="translate(-872.103 -3022.116)" fill="#fff"/>
</svg>
