<svg id="icon_12" xmlns="http://www.w3.org/2000/svg" width="122.757" height="122.756" viewBox="0 0 122.757 122.756">
  <path id="Trazado_969" data-name="Trazado 969" d="M163.512,1834.767H141.933c-3.166-.916-4.663-3.123-5.24-6.291-.865-4.748-2-9.447-2.917-14.186a9.575,9.575,0,0,0-4.117-6.46,12.4,12.4,0,0,1-4.953-7c-.575-1.992-1.066-4.01-1.552-6.025-.161-.666-.4-.993-1.179-.991q-14.8.043-29.61,0c-.779,0-1.025.319-1.181.989-.372,1.592-.843,3.162-1.2,4.757a13.855,13.855,0,0,1-5.864,8.723,7.989,7.989,0,0,0-3.347,5.2c-1.03,4.962-2.18,9.9-3.1,14.882-.59,3.193-2.039,5.482-5.269,6.408H50.826a6.9,6.9,0,0,1-5.035-5.035v-2.4a5.561,5.561,0,0,0,.214-.8,89.2,89.2,0,0,1,2.922-15.266c.932-3.123,1.354-6.114.033-9.185a3.8,3.8,0,0,1-.174-.818c-.952-5.172-1.6-10.372-.253-15.556a32.787,32.787,0,0,0,.472-13.066c-.35-2.466-1.388-4.745-1.913-7.161a6.757,6.757,0,0,1,5.139-8.3,7.051,7.051,0,0,1,5.817,1.418v-1.583q0-17.978,0-35.957c0-5.732,3.338-9.049,9.1-9.049h80.063c5.739,0,9.075,3.334,9.076,9.073q0,17.978,0,35.957v1.533c.393-.244.586-.37.784-.486a6.517,6.517,0,0,1,7.246.017,6.447,6.447,0,0,1,3.059,6.565,20.378,20.378,0,0,1-1.061,4.043,32.051,32.051,0,0,0-1.176,13.73c.248,2.147,1.117,4.169,1.26,6.331a44.49,44.49,0,0,1-1.757,15.982,5.312,5.312,0,0,0-.106,3.166,109.662,109.662,0,0,1,3.42,15.776,21.089,21.089,0,0,1,.521,5.708C168.1,1832.315,166.2,1833.932,163.512,1834.767Zm-11.53-76.366.217-.043v-1.039q0-18.157,0-36.315c0-3.36-1.551-4.908-4.908-4.908H67.111c-3.447,0-4.972,1.52-4.972,4.961q0,18.1,0,36.2v1.189a1.188,1.188,0,0,0,.448-.834c.676-2.626,1.322-5.261,2.044-7.875a6.1,6.1,0,0,1,8.729-4.146c.544.243.788.206,1.159-.274a5.887,5.887,0,0,1,6.2-2.452,5.821,5.821,0,0,1,4.7,4.852c.113.514.239.791.908.8a5.9,5.9,0,0,1,6.184,5.041c.142.635.382.709.948.713a6.088,6.088,0,0,1,6.1,7.858q-3.326,13.1-6.7,26.2c-.362,1.413-.364,1.415,1.052,1.415h26.367c1.585,0,1.58,0,1.2-1.487-2.233-8.733-4.48-17.461-6.688-26.2a6.077,6.077,0,0,1,6.064-7.787c.626,0,.858-.112,1-.785a5.949,5.949,0,0,1,6.127-4.98c.6-.006.834-.163.953-.742a6.024,6.024,0,0,1,10.864-2.481c.409.536.689.539,1.257.283a6.08,6.08,0,0,1,8.612,4c.512,1.8.937,3.629,1.41,5.443C151.367,1756.137,151.678,1757.268,151.982,1758.4Zm-13.525,35.428c-3.436,0-6.872.027-10.308-.019-.882-.011-1.013.29-.8,1.045.38,1.343.742,2.693,1.059,4.051a9.688,9.688,0,0,0,4.094,5.975,12.24,12.24,0,0,1,5.122,7.939c1.092,5.273,2.222,10.539,3.342,15.807.309,1.455.957,2.046,2.354,2.049q9.408.022,18.817,0a2.08,2.08,0,0,0,2.284-2.528c-.307-2.414-.645-4.827-1.049-7.227a97.266,97.266,0,0,0-2.891-12.342c-.716-2.34.18-4.48.7-6.682,1.185-5.012,1.9-10.086.634-15.167a36.274,36.274,0,0,1-.187-16.376c.414-1.986,1.153-3.9,1.614-5.879a2.617,2.617,0,0,0-1.766-3.239c-1.424-.445-2.56.115-3.259,1.67a20.2,20.2,0,0,0-1.941,8.567c.046,4.514.017,9.029.01,13.544-.009,5.426-3.392,8.8-8.842,8.81C144.45,1793.835,141.453,1793.829,138.457,1793.829Zm-76.918,36.854c3.076,0,6.151.006,9.227,0,1.661,0,2.272-.511,2.623-2.161,1.112-5.227,2.241-10.451,3.321-15.686a11.16,11.16,0,0,1,4.368-7.33,11.938,11.938,0,0,0,5.263-8.2,12.735,12.735,0,0,1,.573-2.2c.366-1,.111-1.3-.974-1.3-6.351.042-12.7.028-19.053.018-5.44-.009-8.827-3.391-8.836-8.81-.007-4.434-.017-8.868,0-13.3A21.187,21.187,0,0,0,56.2,1763a2.669,2.669,0,1,0-5.092,1.6,28.32,28.32,0,0,0,.793,2.757,35.208,35.208,0,0,1,1.34,15.615c-.28,2.129-1.023,4.207-1.2,6.337a37.4,37.4,0,0,0,1.546,14.2,8.531,8.531,0,0,1,.268,5.062,115.5,115.5,0,0,0-3.9,19.208c-.233,1.939.538,2.89,2.478,2.9C55.467,1830.691,58.5,1830.683,61.539,1830.683Zm76.08-40.946c3.316,0,6.633.007,9.95,0,3.048-.008,4.621-1.6,4.63-4.683.008-2.757-.01-5.514.01-8.271a7.779,7.779,0,0,0-.26-2.009q-2.278-8.867-4.558-17.733c-.547-2.125-1.075-4.254-1.659-6.369a2.044,2.044,0,1,0-3.963.984c.082.431.2.855.292,1.284q2.176,9.815,4.347,19.631c.405,1.841-.8,3.182-2.457,2.758a2.178,2.178,0,0,1-1.554-1.924q-2.719-12.269-5.461-24.532c-.338-1.511-1.3-2.26-2.472-2-1.22.271-1.8,1.408-1.466,2.944q1.273,5.848,2.568,11.69c1.1,4.987,2.214,9.97,3.295,14.961a2.032,2.032,0,0,1-1.475,2.6,2.077,2.077,0,0,1-2.472-1.686c-.044-.153-.095-.306-.129-.461q-1.713-7.773-3.425-15.545c-.526-2.376-1.041-4.755-1.614-7.12a1.989,1.989,0,0,0-2.174-1.645,2.028,2.028,0,0,0-1.761,2.206,5.118,5.118,0,0,0,.131,1.068q1.821,8.239,3.655,16.475c.638,2.882,1.29,5.763,1.882,8.654a2,2,0,0,1-1.51,2.378,2.037,2.037,0,0,1-2.42-1.44,10.49,10.49,0,0,1-.252-1.047q-2.266-10.224-4.533-20.448c-.337-1.516-1.375-2.325-2.577-2.042-1.249.294-1.777,1.4-1.38,2.956,2.322,9.082,4.665,18.159,6.953,27.249.218.864.541,1.148,1.431,1.135C130.665,1789.706,134.142,1789.737,137.618,1789.737Zm-60.948,0c3.436,0,6.872-.046,10.307.028,1.052.023,1.426-.33,1.661-1.321.885-3.724,1.868-7.426,2.817-11.135q2.048-8,4.1-16c.4-1.563-.26-2.761-1.576-2.939a2.241,2.241,0,0,0-2.392,2.024q-1.446,6.482-2.874,12.968c-.594,2.687-1.174,5.378-1.782,8.062a2.016,2.016,0,0,1-1.946,1.8A1.911,1.911,0,0,1,83,1781.962a3.042,3.042,0,0,1,.024-1.887q2.666-12.033,5.34-24.066a4.109,4.109,0,0,0,.1-1.779,1.859,1.859,0,0,0-1.7-1.6,1.9,1.9,0,0,0-2.032,1.174,6.1,6.1,0,0,0-.348,1.265q-2.509,11.272-5.015,22.544c-.317,1.418-1.271,2.125-2.437,1.883a2.078,2.078,0,0,1-1.546-2.766q1.793-8.121,3.6-16.239c.8-3.622,1.616-7.241,2.4-10.867a2.152,2.152,0,0,0-1.487-2.733c-1.152-.276-2.129.447-2.477,1.835-.078.309-.149.621-.218.932q-2.634,11.857-5.27,23.714c-.351,1.576-1.282,2.269-2.585,1.97-1.2-.275-1.737-1.354-1.405-2.85q1.345-6.075,2.7-12.148c.648-2.921,1.309-5.839,1.929-8.765a2.006,2.006,0,0,0-1.494-2.488,2.068,2.068,0,0,0-2.437,1.432c-.094.262-.155.536-.224.807q-3.026,11.762-6.043,23.525a6.953,6.953,0,0,0-.23,1.65q-.034,4.375-.006,8.749c.017,2.833,1.645,4.471,4.461,4.484C69.959,1789.748,73.315,1789.736,76.671,1789.737Z" transform="translate(-45.791 -1712.011)" fill="#029837"/>
  <path id="Trazado_970" data-name="Trazado 970" d="M111.6,1755.916a2.037,2.037,0,0,1-1.689-1.107,1.915,1.915,0,0,1,.1-2.042,4.148,4.148,0,0,1,.547-.63q6.893-6.9,13.787-13.794a2.076,2.076,0,0,1,2.569-.647,1.933,1.933,0,0,1,1.131,2.163,2.314,2.314,0,0,1-.751,1.324q-6.94,6.935-13.873,13.876A2.473,2.473,0,0,1,111.6,1755.916Z" transform="translate(-89.205 -1729.318)" fill="#029837"/>
  <path id="Trazado_971" data-name="Trazado 971" d="M115.881,1737.493a1.958,1.958,0,0,1,1.73,1.152,1.823,1.823,0,0,1-.237,2.135c-1.454,1.533-2.943,3.038-4.49,4.475a2.008,2.008,0,0,1-2.793-2.846c1.438-1.547,2.965-3.012,4.479-4.486A1.846,1.846,0,0,1,115.881,1737.493Z" transform="translate(-89.168 -1729.331)" fill="#029837"/>
</svg>
