<svg id="icon_14" xmlns="http://www.w3.org/2000/svg" width="149.298" height="126.972" viewBox="0 0 149.298 126.972">
  <path id="Trazado_1044" data-name="Trazado 1044" d="M-183.883,3101.047c.86-2.312,2.416-3.728,4.981-3.723.921,0,.943-.682,1.148-1.236q5.393-14.53,10.77-29.065c.657-1.774,1.273-3.565,1.993-5.313.359-.871.221-1.231-.727-1.469a18.329,18.329,0,0,1-8.067-4.465c-2.174-2.013-2.44-4.854-.661-6.876,1.807-2.055,4.742-2.106,7-.122,4.437,3.9,10.029,3.647,14.023-.627a28,28,0,0,1,38.452-3.035c.257.2.524.389,1.033.766v-3.069c0-2.964-.026-5.929.01-8.893a4.685,4.685,0,0,1,4.639-4.805,4.69,4.69,0,0,1,4.745,4.848c.034,3.877.008,7.755.008,11.729a3.346,3.346,0,0,0,1.522-.952,28.071,28.071,0,0,1,37.591,3.007c4.471,4.785,9.637,5.073,14.636.815a4.754,4.754,0,0,1,6.684.255,4.686,4.686,0,0,1-.289,6.677,18.3,18.3,0,0,1-8.388,4.76c-.817.207-1.078.443-.741,1.346q6.462,17.315,12.838,34.662a1.406,1.406,0,0,0,1.432,1.09c2.971.231,4.633,2.107,4.664,5.083.127,12.105-8.365,22.272-20,23.939-12.386,1.775-23.647-5.492-26.8-17.292a24.205,24.205,0,0,1-.756-6.927,4.593,4.593,0,0,1,4.349-4.767,1.872,1.872,0,0,0,1.877-1.53q6.268-17.076,12.638-34.114c.4-1.061.385-1.508-.88-1.9a19.254,19.254,0,0,1-8.184-5.626,18.439,18.439,0,0,0-20.464-4.531,18.559,18.559,0,0,0-11.715,17.115c-.051,21.819-.015,43.639-.037,65.458a1.348,1.348,0,0,0,1.1,1.532,18.073,18.073,0,0,1,11.719,11.692,1.4,1.4,0,0,0,1.661,1.127c1.357-.071,2.722-.051,4.081-.01a4.692,4.692,0,0,1,4.8,4.648,4.714,4.714,0,0,1-4.631,4.823c-.242.019-.486.016-.729.016q-22.67,0-45.34,0c-2.889,0-4.882-1.444-5.318-3.785a4.736,4.736,0,0,1,4.7-5.7c1.5-.051,3.013-.038,4.519,0a1,1,0,0,0,1.14-.814,18.153,18.153,0,0,1,12.083-12.064c.941-.312.834-.91.834-1.576q0-17.13,0-34.26c0-10.254.031-20.507-.011-30.761a18.524,18.524,0,0,0-14.9-18.372,17.855,17.855,0,0,0-17.261,5.442,20.318,20.318,0,0,1-8.729,5.833c-1.158.346-.61.978-.4,1.541q4.989,13.516,10,27.021c.943,2.548,1.9,5.091,2.807,7.65a1.4,1.4,0,0,0,1.422,1.112c2.993.23,4.639,2.083,4.669,5.066.123,12.2-8.493,22.467-20.11,23.971-12.533,1.623-23.608-5.6-26.7-17.431-.28-1.073-.494-2.164-.738-3.246Zm23.778-34.478-11.308,30.568a2.1,2.1,0,0,0,.44.146c7.089.012,14.178.009,21.266.036,1,0,.822-.434.581-1.08-1.545-4.131-3.063-8.272-4.593-12.409C-155.8,3078.2-157.886,3072.565-160.1,3066.569Zm101.79.136c-.218.421-.325.585-.391.763q-5.3,14.316-10.607,28.629c-.368.985-.211,1.239.845,1.229,4.757-.042,9.516-.018,14.274-.018h7.2Zm-101.7,40.1c-4.219,0-8.437.025-12.656-.018-1.005-.01-1.257.217-.908,1.214a14.137,14.137,0,0,0,13.406,9.15A14.134,14.134,0,0,0-146.625,3108c.345-.973.141-1.225-.884-1.214C-151.678,3106.833-155.849,3106.806-160.019,3106.806Zm101.751,0q-6.2,0-12.393,0c-1.633,0-1.633.007-1,1.584a13.989,13.989,0,0,0,13.252,8.761,14,14,0,0,0,13.355-8.823c.6-1.513.6-1.52-.971-1.522Q-52.145,3106.8-58.268,3106.806Zm-58.469,39.655h15.009A8.891,8.891,0,0,0-116.737,3146.461Z" transform="translate(183.883 -3029.115)" fill="#fff"/>
</svg>
