<svg xmlns="http://www.w3.org/2000/svg" width="117.623" height="122.757" viewBox="0 0 117.623 122.757">
  <g id="icon_08" transform="translate(0)">
    <path id="Trazado_972" data-name="Trazado 972" d="M-390.311,1708.112a5.043,5.043,0,0,1,2.038,1.945q4.072,6.274,8.581,12.258c.371-.243.327-.59.354-.878a2.63,2.63,0,0,1,2.041-2.511,2.62,2.62,0,0,1,3.052,1.355c3.2,4.929,6.769,9.592,10.241,14.325,4.7,6.412,9.294,12.894,12.837,20.046,3.279,6.617,5.582,13.494,5.508,20.989a39.918,39.918,0,0,1-9.585,25.491,43.567,43.567,0,0,1-19.121,13.541c-.859.312-1.276.692-1.106,1.6a1.248,1.248,0,0,1-.007.359,1.811,1.811,0,0,1-1.892,1.762,1.753,1.753,0,0,1-1.678-1.827c-.035-1.917-.052-3.837,0-5.753.024-.816-.273-1-1.031-1q-11.328.033-22.656,0c-.806,0-1.117.2-1.111,1.06q.052,7.731,0,15.463c0,.724.2.951.943.948q11.448-.037,22.9,0c.718,0,1.037-.169.948-.931a8.343,8.343,0,0,1,0-1.437,1.672,1.672,0,0,1,1.613-1.75,1.671,1.671,0,0,1,1.923,1.549,34.5,34.5,0,0,1-.007,4.55,1.7,1.7,0,0,1-1.906,1.6c-1.678.009-3.356,0-5.035,0q-11.208,0-22.417,0c-2.019,0-2.533-.516-2.536-2.56-.005-4.075-.04-8.152.026-12.227a1.558,1.558,0,0,0-1.19-1.715c-12.872-5.385-21.814-14.521-26.129-27.884-2.951-9.14-1.922-18.129,1.593-26.931a86.634,86.634,0,0,1,8.915-16.236,1.823,1.823,0,0,1,2.649-.749c.913.6,1.072,1.621.332,2.734a96.023,96.023,0,0,0-8.075,14.389c-9.686,21.923,2.245,40.722,17.221,49.079,1.217.679,2.5,1.233,3.754,1.855.615.306.929.271.915-.555-.038-2.317,0-4.635-.026-6.952a5.438,5.438,0,0,0-2.057-4.284c-.983-.817-1.955-1.648-2.933-2.471a9.877,9.877,0,0,1-3.872-7.054,89.028,89.028,0,0,1,.078-14.72c.529-4.731,3.383-7.906,7.8-9.607a1.275,1.275,0,0,0,1.016-1.436c-.047-3.156,0-6.313-.024-9.47a6.377,6.377,0,0,1,3.651-6.242,6.258,6.258,0,0,1,7.161.88c.447.366.664.3,1.084-.022,3.939-3.019,8.83-1.543,10.5,3.172.216.611.406.66,1.009.46a6.416,6.416,0,0,1,7.626,2.41c.388.53.634.583,1.224.3a6.529,6.529,0,0,1,9.536,5.962c.038,8.071.025,16.143,0,24.215a13.708,13.708,0,0,1-3.679,9.487c-1.346,1.475-2.739,2.909-4.123,4.349a6.917,6.917,0,0,0-2.044,5.077q.044,3.116-.005,6.233c-.011.691.1.942.84.62,13.868-6.02,22.669-16.144,25.078-31.292,1.174-7.383-.64-14.355-3.656-21.06-3.114-6.922-7.353-13.161-11.784-19.279q-5.271-7.278-10.565-14.538c-.109-.149-.163-.38-.52-.345-.107.827-.239,1.677-.322,2.532a1.945,1.945,0,0,1-1.345,1.926,1.911,1.911,0,0,1-2.158-.905c-3.64-4.711-7.127-9.533-10.387-14.514-.649-.992-.9-.822-1.47.039q-4.842,7.359-10.25,14.317a2.272,2.272,0,0,1-1.608,1.128,1.793,1.793,0,0,1-1.969-1.676c-.155-.943-.238-1.9-.355-2.865-.533.028-.606.5-.82.8-3.088,4.224-6.152,8.464-9.241,12.687-.918,1.256-2.187,1.425-3.022.431-.753-.9-.476-1.742.154-2.6q4.634-6.334,9.226-12.7c.631-.873,1.2-1.794,1.8-2.688.878-1.3,1.871-1.781,3.128-1.434a2.634,2.634,0,0,1,2.021,2.529,8.159,8.159,0,0,0,.161.833c.457-.074.562-.456.756-.718,2.782-3.755,5.472-7.575,8.012-11.5a5.21,5.21,0,0,1,2.021-1.96Zm21.1,65.716c-3.651.758-3.657.77-7.483-1.272-.445-.238-.564.069-.789.236-2.834,2.107-5.737,2.138-8.468.012a.749.749,0,0,0-1.177.034,5.923,5.923,0,0,1-3.469,1.467,1.034,1.034,0,0,0-.839.368c-1.626,2.168-3.9,2.736-6.464,2.66-1.931-.057-1.93-.012-1.284,1.724.125.336.239.677.344,1.02a18.127,18.127,0,0,1,.79,6.739,1.831,1.831,0,0,1-1.867,1.8,1.8,1.8,0,0,1-1.695-1.94c-.013-.519.028-1.04.006-1.558a13.8,13.8,0,0,0-2.787-8.128,2.039,2.039,0,0,1-.446-2.31,1.962,1.962,0,0,1,2.035-.961c1.957.011,3.915.031,5.872-.007a3,3,0,0,0,3.219-2.982,3.011,3.011,0,0,0-3.3-2.9c-2.277-.016-4.554-.007-6.831,0-5.409.008-8.981,3.594-8.993,9.032-.007,3.315.084,6.634-.027,9.946a8.078,8.078,0,0,0,3.419,7.357c.323.232.591.543.917.77a10.3,10.3,0,0,1,4.688,9.984c-.1,1.039.219,1.347,1.3,1.339q11.024-.077,22.05,0c1.138.008,1.536-.247,1.447-1.434a10.688,10.688,0,0,1,3.521-8.806c1.2-1.165,2.331-2.413,3.47-3.644a10.32,10.32,0,0,0,2.83-7.177c.017-2.716,0-5.433.005-8.149Zm-20.858-3.328a3.077,3.077,0,0,0,1.731-2.935c-.012-4.545.009-9.089-.012-13.634a2.9,2.9,0,0,0-2.835-3.186,2.893,2.893,0,0,0-3.083,3.073c-.061,3.387-.02,6.777-.026,10.165,0,.371.014.708.416.9A6.812,6.812,0,0,1-390.072,1770.5Zm11.287-7.368q0-2.151,0-4.3c0-.08,0-.16,0-.239a2.921,2.921,0,0,0-2.842-3.066,2.849,2.849,0,0,0-3.075,2.823q-.133,4.777,0,9.559a2.853,2.853,0,0,0,3.071,2.83,2.907,2.907,0,0,0,2.841-3.063C-378.764,1766.161-378.786,1764.647-378.784,1763.133Zm-25.04-4.67c0,1.6.04,3.2-.017,4.793-.029.808.266,1.022,1.028.992,1.356-.052,2.717-.052,4.074,0,.722.027.864-.277.859-.916-.024-3.156.018-6.312-.025-9.468a2.885,2.885,0,0,0-2.917-3.12,2.909,2.909,0,0,0-2.994,3.165C-403.849,1755.426-403.822,1756.944-403.824,1758.463Zm34.608,5.856c0-1.115.026-2.231-.006-3.346a2.945,2.945,0,0,0-2.983-3.059,2.921,2.921,0,0,0-2.963,2.96q-.085,3.463,0,6.929a2.91,2.91,0,0,0,2.981,2.938,2.928,2.928,0,0,0,2.96-2.958C-369.183,1766.63-369.218,1765.474-369.216,1764.319Z" transform="translate(449.633 -1708.112)" fill="#029837"/>
    <path id="Trazado_973" data-name="Trazado 973" d="M-169.749,1737.932a2.181,2.181,0,0,1-1.125,1.987c-4.882,2.915-7.793,7.435-10.112,12.426-.577,1.242-.986,2.645-2.683,2.667s-2.151-1.347-2.723-2.605a28.976,28.976,0,0,0-7.92-10.955c-.71-.574-1.513-1.034-2.263-1.561a2.281,2.281,0,0,1-.046-3.915c5.04-3.072,8.042-7.741,10.4-12.948.131-.29.249-.588.395-.871a2.262,2.262,0,0,1,2.093-1.349,2.217,2.217,0,0,1,2.179,1.4,48.7,48.7,0,0,0,2.513,5.024,23.7,23.7,0,0,0,8.112,8.629A2.232,2.232,0,0,1-169.749,1737.932Zm-13.9-11.62c-.16.143-.2.163-.216.195-2.228,4.185-4.809,8.1-8.638,11.023-.579.443-.145.629.159.868a31.442,31.442,0,0,1,7.945,9.926c.2.365.282.823.749,1.092a3.927,3.927,0,0,0,.263-.381,31.565,31.565,0,0,1,8.448-10.721c.512-.393.295-.588-.081-.874a24.865,24.865,0,0,1-4.525-4.589A45.461,45.461,0,0,1-183.646,1726.312Z" transform="translate(287.371 -1716.741)" fill="#029837"/>
    <path id="Trazado_974" data-name="Trazado 974" d="M-453.608,2003.193a2.289,2.289,0,0,1-1.056,1.909c-4.156,2.5-6.625,6.35-8.553,10.639a3.815,3.815,0,0,1-1.007,1.6,2.267,2.267,0,0,1-3.53-1.057,32.829,32.829,0,0,0-3.715-6.534,18.226,18.226,0,0,0-4.891-4.522c-1.632-1.013-1.727-2.944-.149-3.918,3.978-2.453,6.407-6.129,8.327-10.236.135-.289.272-.577.392-.872a2.223,2.223,0,0,1,2.174-1.567,2.247,2.247,0,0,1,2.181,1.568,29.783,29.783,0,0,0,3.857,6.722,16.69,16.69,0,0,0,4.668,4.238A2.494,2.494,0,0,1-453.608,2003.193Zm-12.028,9.054a3.952,3.952,0,0,0,.329-.429,26.118,26.118,0,0,1,6.495-8.195c.5-.4.263-.589-.091-.876a26.36,26.36,0,0,1-6.175-7.7c-.159-.28-.191-.694-.661-.775a26.928,26.928,0,0,1-6.653,8.527c-.617.5-.148.7.175.967a23.872,23.872,0,0,1,4.765,5.493C-466.835,2010.219-466.265,2011.208-465.636,2012.247Z" transform="translate(477.64 -1898.783)" fill="#029837"/>
  </g>
</svg>
