<svg id="icon_10" xmlns="http://www.w3.org/2000/svg" width="120.104" height="120.095" viewBox="0 0 120.104 120.095">
  <path id="Trazado_975" data-name="Trazado 975" d="M-94.479,2277.256a11.456,11.456,0,0,0,1.639.015,11.89,11.89,0,0,1,8.769,2.362c1.549,1.109,3.287,1.954,4.935,2.925a1.445,1.445,0,0,0,1.207.246c1.353-.377,2.723-.69,4.079-1.058.84-.228.983-.833.28-1.383-4.107-3.212-5.562-7.507-5.456-12.585.066-3.167.22-6.255,1.958-9.021a13.192,13.192,0,0,1,11.219-6.579c.964-.036,1.02-.3.66-1.062-.5-1.059-.9-2.163-1.385-3.226a.924.924,0,0,1,.221-1.223q4.628-4.574,9.2-9.2a.771.771,0,0,1,1.178-.12c1.552,1.05,3.151,2.032,4.7,3.09a1.213,1.213,0,0,0,1.472.061,26.205,26.205,0,0,1,5.608-2.331,1.389,1.389,0,0,0,1.1-1.288c.329-1.764.779-3.506,1.1-5.272.119-.661.4-.8,1.007-.8q6.566.03,13.132,0c.637,0,.864.206.979.832.331,1.8.768,3.587,1.118,5.387a1.249,1.249,0,0,0,1,1.106,26.79,26.79,0,0,1,5.712,2.385,1.209,1.209,0,0,0,1.471-.1c1.489-1.005,3.021-1.946,4.5-2.963a.94.94,0,0,1,1.46.12q4.431,4.522,8.95,8.958a1.129,1.129,0,0,1,.319,1.509c-.62,1.292-1.144,2.631-1.755,4.06a17.931,17.931,0,0,1,3.933.46,13.96,13.96,0,0,1,10.22,12.627c.188,3.347.336,6.729-1.155,9.906a13.956,13.956,0,0,1-3.825,4.969c-.379.31-.914.532-.783,1.181.142.7.8.529,1.232.655,2.952.869,6.042,1.25,8.877,2.525a1,1,0,0,0,.979-.158,28.155,28.155,0,0,0,3.1-1.652,9.485,9.485,0,0,1,6.236-1.437c.733.043.9.25.9.949q-.032,13.25.008,26.5c0,.793-.378,1.057-.972,1.354q-16.346,8.147-32.687,16.307a1.959,1.959,0,0,0-1.333,1.887,5.649,5.649,0,0,1-4.7,5.13c-.737.123-1.043.346-1.156,1.129a5.661,5.661,0,0,1-4.724,4.72c-.641.094-.936.257-1.064.932-.54,2.834-2.138,4.368-5.054,4.938-.311.061-.616.03-.664.474-.31,2.871-2.114,4.464-4.662,5.413h-2.58a8.6,8.6,0,0,1-3.761-2.271,1.241,1.241,0,0,0-1.714-.263,5.908,5.908,0,0,1-8.367-4.305,1.157,1.157,0,0,0-1.085-1.088,5.764,5.764,0,0,1-4.756-4.848c-.1-.633-.352-.8-.935-.919a5.842,5.842,0,0,1-4.91-5c-.094-.5-.233-.7-.765-.8a5.864,5.864,0,0,1-5.069-5.1,1.285,1.285,0,0,0-.661-1q-2.279-1.324-4.519-2.715c-.5-.312-.869-.391-.954.323-.093.788-.587.839-1.239.866a13.669,13.669,0,0,1-5.161-.783c-5.521-1.928-11.074-3.764-16.615-5.635Zm116.063,8.274a2.467,2.467,0,0,0-1.266.523q-16.58,8.714-33.139,17.469a6.821,6.821,0,0,1-4.014.868,12.773,12.773,0,0,1-2.282-.5c-3.339-.951-6.677-1.9-10.01-2.875a9,9,0,0,0-6.729.464q-5.249,2.589-10.463,5.246a2.889,2.889,0,0,0-1.324,4.054c.771,1.39,2.358,1.726,3.945.793,2.087-1.226,4.154-2.486,6.232-3.726,3.821-2.281,7.084-1.98,10.386.982q7.679,6.887,15.326,13.81a1.417,1.417,0,0,0,1.905.266q15.21-7.664,30.467-15.236a1.681,1.681,0,0,0,1.124-1.761c-.047-6.408-.023-12.816-.029-19.224A2.121,2.121,0,0,0,21.584,2285.531Zm-60.5,12.94a21.883,21.883,0,0,0-11.091-1.592c-4.749.729-9.38,2.03-14.086,2.969a1.235,1.235,0,0,0-1.084,1.01q-2.333,8.34-4.748,16.656a.879.879,0,0,0,.463,1.221c1.523.876,3.045,1.758,4.517,2.715.613.4.882.237,1.331-.244a46.763,46.763,0,0,1,3.671-3.619,5.935,5.935,0,0,1,9.831,3.353,1.163,1.163,0,0,0,1.084,1.092,5.72,5.72,0,0,1,4.746,4.844c.106.63.374.8.948.925a5.807,5.807,0,0,1,4.9,5,.787.787,0,0,0,.784.781,6.723,6.723,0,0,1,4.194,2.727,20.837,20.837,0,0,0,5.428,4.58,2.109,2.109,0,0,0,2.916-.595,2.074,2.074,0,0,0-.572-2.81c-.143-.133-.295-.256-.445-.382q-3.692-3.077-7.384-6.154c-.688-.575-1.815-1.108-1.913-1.78-.115-.8,1.073-1.417,1.563-2.2.507-.814.915-.618,1.531-.1q4.648,3.943,9.359,7.812a2.438,2.438,0,0,0,3.556-.049c.811-1.008.557-2.11-.76-3.212q-3.73-3.122-7.469-6.235c-2.273-1.9-2.242-1.884-.3-4.173.5-.591.767-.5,1.28-.065q4.7,3.971,9.452,7.884a2.494,2.494,0,0,0,3.567.017c.85-1.011.615-2.177-.688-3.349q-7.667-6.9-15.339-13.8c-1.89-1.7-3.543-1.858-5.751-.546q-3.272,1.945-6.532,3.911a6.341,6.341,0,0,1-4.959.759,6.38,6.38,0,0,1-4.851-5.283c-.359-2.975.488-5.479,3.21-6.976,2.8-1.541,5.709-2.89,8.56-4.342C-39.639,2299.031-39.179,2298.958-38.919,2298.471Zm14.132-30.261a16.649,16.649,0,0,0-.53-5.379,9.95,9.95,0,0,0-9.035-6.823,9.725,9.725,0,0,0-9.283,6.757c-.635,1.994-.4,4.024-.463,6.045a9.652,9.652,0,0,0,5.059,9.238,1.3,1.3,0,0,1,.728,1.313,39.819,39.819,0,0,0,.012,3.984c.074,1.031-.324,1.407-1.292,1.629-3.231.741-6.448,1.55-9.657,2.385a5.828,5.828,0,0,0-4.5,4.972c-.167,1.1.161,1.245,1.155,1.041a23.706,23.706,0,0,1,11.247.288c4.463,1.236,8.814,2.835,13.385,3.742,3.547.7,6.992,1.917,10.478,2.923a6.1,6.1,0,0,0,1.383.2c.725.041,1.074-.208,1.061-1-.035-2.11.043-4.222-.028-6.329a5.787,5.787,0,0,0-4.743-5.877c-2.416-.629-4.844-1.213-7.26-1.842-1.124-.293-2.606-.176-3.269-1.006s-.085-2.267-.236-3.42c-.222-1.7.093-3.058,1.868-3.736a2.107,2.107,0,0,0,.55-.432A9.861,9.861,0,0,0-24.787,2268.21Zm34.871,18.839c-3.182-.8-6-1.542-8.838-2.216-.627-.148-.824-.411-.81-1.023.031-1.445.043-2.892-.012-4.335a1.438,1.438,0,0,1,.831-1.485A9,9,0,0,0,6,2271.37a19.508,19.508,0,0,0-.363-8.59,9.883,9.883,0,0,0-8.941-6.773,9.72,9.72,0,0,0-9.36,6.8c-.627,1.993-.4,4.025-.454,6.046a9.655,9.655,0,0,0,5.1,9.213,1.275,1.275,0,0,1,.724,1.309c-.042,1.405-.049,2.814,0,4.218.027.747-.179,1.1-.967,1.274-1.852.4-3.679.911-5.765,1.441,3.494,3.4,2.726,7.688,2.825,11.937Zm-65.073-.776c-1.881-.47-3.636-.948-5.411-1.336-.853-.186-1.256-.511-1.19-1.468a35.21,35.21,0,0,0,0-3.981,1.428,1.428,0,0,1,.84-1.481,8.9,8.9,0,0,0,4.579-5.813,17.7,17.7,0,0,0-.292-9.705,9.711,9.711,0,0,0-8.9-6.476,9.667,9.667,0,0,0-9.3,6.877c-.584,1.872-.364,3.791-.433,5.695a9.805,9.805,0,0,0,5.167,9.532,1.112,1.112,0,0,1,.613,1.131c-.024,1.523-.031,3.047,0,4.569.014.619-.2.865-.815,1.024a16.23,16.23,0,0,0-3.408.981c3.119,1.821,6.1,3.591,9.118,5.3a1.533,1.533,0,0,1,.917,1.655c-.077.963-.018,1.935-.018,2.99,1.689-.378,3.346-.8,5.024-1.1.726-.131.856-.475.834-1.109a10.207,10.207,0,0,1,.849-4.446A17.662,17.662,0,0,1-54.988,2286.272Zm7-18.7c0-.819-.053-1.643.008-2.459.426-5.656,3.2-9.779,8.428-11.939,5.063-2.093,9.777-1.132,13.978,2.411,5.568,4.7,5.584,13.96,3.623,19.137a12.732,12.732,0,0,1-4.2,5.528c-.555.434-1.024,1.123-.135,1.4,2.379.743,4.827,1.265,7.255,1.845a1.874,1.874,0,0,0,.8-.136c2.044-.508,4.089-1.011,6.126-1.546.331-.087.824.022.9-.556a1.067,1.067,0,0,0-.565-1.057,11.319,11.319,0,0,1-3.12-3.457c-2.921-5.181-2.682-10.6-1.1-16.094.145-.506.476-.92.108-1.526-4.246-7.011-10.482-10.834-18.638-10.806-7.953.028-14.1,3.731-18.3,10.562a2.019,2.019,0,0,0-.141,1.938,20.139,20.139,0,0,1-.249,14.518,12.323,12.323,0,0,1-3.9,4.9c-.761.6-.793,1.277-.069,1.47,2.336.624,4.686,1.2,7.037,1.764a1.8,1.8,0,0,0,.8-.087q3.181-.786,6.355-1.6c.309-.079.743,0,.809-.5a.966.966,0,0,0-.459-.988,12.2,12.2,0,0,1-2.348-2.277A14.617,14.617,0,0,1-47.989,2267.569Zm34.924-11.542a1.636,1.636,0,0,0,.3-.174,17.263,17.263,0,0,1,3.772-2.548,1.14,1.14,0,0,0,.383-.561c.577-1.323,1.116-2.663,1.718-3.974a.943.943,0,0,0-.248-1.233c-1.7-1.671-3.389-3.352-5.049-5.062a.843.843,0,0,0-1.291-.142c-1.351.928-2.749,1.787-4.106,2.707a1,1,0,0,1-1.263.045,29.53,29.53,0,0,0-9.243-3.856,1.078,1.078,0,0,1-.947-.986c-.3-1.572-.658-3.131-.957-4.7-.113-.594-.359-.859-1-.851-2.266.032-4.532.036-6.8,0a.923.923,0,0,0-1.085.9c-.286,1.533-.656,3.052-.939,4.585a1.153,1.153,0,0,1-1,1.069,29.129,29.129,0,0,0-9.138,3.806,1.068,1.068,0,0,1-1.364-.034c-1.354-.924-2.754-1.781-4.11-2.7a.787.787,0,0,0-1.2.123c-1.109,1.156-2.258,2.272-3.392,3.4-2.25,2.247-2.2,2.227-1.017,5.245a4.965,4.965,0,0,0,2.658,3.173,5.313,5.313,0,0,1,1.765,1.331c.666.732.985.513,1.459-.193a23.867,23.867,0,0,1,10.557-8.805,24.54,24.54,0,0,1,23.027,1.391,23.9,23.9,0,0,1,7.816,7.293C-13.578,2255.552-13.445,2255.906-13.065,2256.028Zm-77.529,41.867c0,5.232.018,10.465-.019,15.7A1.221,1.221,0,0,0-89.608,2315c2.161.664,4.305,1.383,6.437,2.137.664.235.935.156,1.115-.572q3.267-13.226,6.6-26.437a.957.957,0,0,0-.552-1.282c-3.116-1.781-6.207-3.6-9.307-5.412-1.112-.649-2.214-1.315-3.34-1.938-1.344-.744-1.938-.411-1.938,1.053Q-90.6,2290.222-90.594,2297.895Zm23.222-3.4c.119-.489-.186-.708-.547-.916-.982-.563-1.977-1.106-2.926-1.72-.714-.462-.978-.41-1.2.5-1.9,7.765-3.866,15.515-5.8,23.274-.243.975-.972,2.115-.536,2.9s1.823.679,2.728,1.12c.862.42,1.108.051,1.329-.738,1.705-6.083,3.448-12.155,5.181-18.229Q-68.259,2297.589-67.372,2294.5Zm30.981,45.027a2.192,2.192,0,0,0-1.2-1.918,2.006,2.006,0,0,0-2.389.336c-1.2,1.12-2.38,2.259-3.487,3.465a2.12,2.12,0,0,0,.044,3.052,2.138,2.138,0,0,0,3.058-.076c1.145-1.061,2.22-2.2,3.314-3.311A2.449,2.449,0,0,0-36.391,2339.524Zm-22.881-11.864a2.582,2.582,0,0,0,.885-.3,20.823,20.823,0,0,0,4.263-4.3,1.9,1.9,0,0,0-.412-2.549,1.976,1.976,0,0,0-2.678-.132,30.446,30.446,0,0,0-3.89,3.877,1.937,1.937,0,0,0-.173,2.2A2.241,2.241,0,0,0-59.272,2327.66Zm11.7,11.558a1.6,1.6,0,0,0,.7-.187,19.419,19.419,0,0,0,4.421-4.456,1.807,1.807,0,0,0-.474-2.432,1.9,1.9,0,0,0-2.571-.21,24.966,24.966,0,0,0-4.046,4.042,1.843,1.843,0,0,0-.064,2.2A2.088,2.088,0,0,0-47.568,2339.218Zm-.462-11.2a2.1,2.1,0,0,0-1.276-2.076,2.083,2.083,0,0,0-2.391.429c-1.1,1.047-2.191,2.116-3.235,3.224a2.156,2.156,0,0,0-.13,3.227,2.2,2.2,0,0,0,3.227-.208c1.044-1,2.053-2.033,3.061-3.068A2.152,2.152,0,0,0-48.03,2328.02Zm17.417,17.05a4.252,4.252,0,0,0-2.172-2.856c-.308-.106-.417.047-.536.268a10.151,10.151,0,0,1-1.954,2.315c-.229.226-.485.446-.1.753a10.477,10.477,0,0,0,1.561,1.217A2.127,2.127,0,0,0-30.613,2345.07Z" transform="translate(94.479 -2230.806)" fill="#029837"/>
</svg>
