<svg id="icon_16" xmlns="http://www.w3.org/2000/svg" width="132.709" height="132.027" viewBox="0 0 132.709 132.027">
  <path id="Trazado_1050" data-name="Trazado 1050" d="M423.413,3062.989c3.049-.011,4.778.76,6.212,2.2,1.519,1.524,3.044,3.044,4.507,4.621.583.628.927.721,1.583.05q4.676-4.787,9.46-9.467a1.452,1.452,0,0,0,.374-1.778,7.528,7.528,0,0,1,12.48-7.8q14.239,14.153,28.421,28.362a7.5,7.5,0,0,1,1.4,9.485c-1.828,3.062-5.257,4.31-9.018,3.2a1.309,1.309,0,0,0-1.521.351c-3.178,3.205-6.356,6.411-9.582,9.568-.709.694-.462,1.067.109,1.624,2.028,1.98,4.018,4,6.022,6q22.1,22.1,44.216,44.188c2.275,2.267,3.345,4.835,2.514,7.965a7.486,7.486,0,0,1-12.337,3.531c-2.542-2.348-4.928-4.869-7.377-7.318q-21.657-21.654-43.286-43.336c-1.02-1.025-1.552-1.034-2.541.005-2.822,2.965-5.748,5.83-8.67,8.7a1.992,1.992,0,0,0-.673,2.3,7.519,7.519,0,0,1-12.58,7.319q-14.211-14.18-28.345-28.437a7.438,7.438,0,0,1-1.2-9.134,7.61,7.61,0,0,1,8.563-3.417,1.771,1.771,0,0,0,2.075-.424q4.528-4.71,9.186-9.294c.8-.78.612-1.191-.08-1.852-1.594-1.521-3.187-3.054-4.648-4.7a7.111,7.111,0,0,1-1.2-8.2A6.877,6.877,0,0,1,423.413,3062.989Z" transform="translate(-388.165 -3048.518)" fill="#fff"/>
  <path id="Trazado_1051" data-name="Trazado 1051" d="M417.436,3320.645q-20.62,0-41.239-.009a7.518,7.518,0,0,1-7.478-9.709,7.1,7.1,0,0,1,5.9-5.234c1.205-.2,1.351-.661,1.343-1.688a25.117,25.117,0,0,1,.19-5.491,9.934,9.934,0,0,1,9.715-8.084q31.637-.053,63.275,0a9.993,9.993,0,0,1,9.932,9.947,7.428,7.428,0,0,1,0,.943c-.26,2.464-.224,4.29,3.091,5.028,3.24.722,4.979,4.726,4.373,7.991a7.526,7.526,0,0,1-7.239,6.281c-3.881.071-7.765.021-11.647.022Z" transform="translate(-368.376 -3188.634)" fill="#fff"/>
</svg>
