<svg id="icon_15" xmlns="http://www.w3.org/2000/svg" width="103.914" height="103.907" viewBox="0 0 103.914 103.907">
  <path id="Trazado_1048" data-name="Trazado 1048" d="M487.722,3539.252c-.43,3.1-2.274,5.322-4.457,7.382-2.238,2.112-4.383,4.324-6.574,6.486-1.548,1.528-2.739,1.533-4.26.013q-11.625-11.625-23.242-23.259c-1.494-1.5-1.49-2.681,0-4.191,2.566-2.6,5.165-5.17,7.7-7.8a11.275,11.275,0,0,1,6.065-3.2h2.233c3.066.464,5.288,2.272,7.37,4.427q5.274,5.458,10.729,10.74c2.142,2.085,4,4.284,4.438,7.37Z" transform="translate(-383.808 -3514.684)" fill="#fff"/>
  <path id="Trazado_1049" data-name="Trazado 1049" d="M249.436,3647.365c.751-2.523-.6-3.724-2.766-4.442a4.9,4.9,0,0,1-1.161-.617,2.305,2.305,0,0,1-.572-3.374,7.8,7.8,0,0,1,.76-.816q21.884-21.9,43.771-43.8c1.7-1.7,2.843-1.7,4.565.025q3.769,3.768,7.535,7.54c1.613,1.618,1.61,2.783-.022,4.4q-23.781,23.6-47.559,47.192a5.226,5.226,0,0,1-2.333,1.348q-15.788,4.5-31.565,9.033a2.91,2.91,0,0,1-2.8-.241c-.883-.673-1.116-1.585-.707-3.02q3.071-10.768,6.152-21.533c.984-3.442,1.984-6.881,2.944-10.33a4.988,4.988,0,0,1,1.307-2.24q23.615-23.833,47.217-47.678c1.545-1.56,2.761-1.547,4.335.024q3.843,3.838,7.678,7.683c1.568,1.572,1.576,2.778.015,4.339q-21.992,22.01-43.99,44.016c-1.786,1.786-3.4,1.5-4.564-.769-.52-1.014-.738-2.432-1.656-2.925-.872-.467-2.178-.142-3.293-.139-.909,0-2.065-.284-2.658.161s-.642,1.635-.9,2.508c-.753,2.6-1.479,5.2-2.24,7.792a1.23,1.23,0,0,0,.333,1.42q5.167,5.1,10.261,10.269a1.232,1.232,0,0,0,1.413.36c3.207-.947,6.417-1.888,9.642-2.769.7-.191.918-.492.861-1.183C249.388,3648.858,249.436,3648.109,249.436,3647.365Z" transform="translate(-216.391 -3560.184)" fill="#fff"/>
</svg>
